#N canvas 32 111 827 503 10;
#X declare -lib mrpeach;
#X text 304 -13 <-analog to digital converter...using channel 2;
#X obj 215 37 fiddle~;
#X floatatom 271 80 5 0 0 0 - - -;
#X text 305 35 <-fiddle~ estimate the pitch;
#X obj 215 -8 adc~;
#X floatatom 174 87 5 0 0 0 - - -;
#X text 306 82 <-MIDI note amplitude;
#X text 53 -64 sending OSC messages with arguments;
#X obj 20 -30 import mrpeach;
#X obj 249 420 dac~;
#X obj 175 121 mtof;
#X text 214 122 <-convert"MIDI" pitch to frequency;
#X text 282 420 Line out to soundcard;
#X floatatom 103 158 5 0 0 0 - - -;
#N canvas 96 404 848 625 osc_communication 1;
#X msg 38 98 connect localhost 12000;
#X text 33 29 --connect to port 12000 on local;
#X text 127 380 --send the packed message;
#X msg 72 136 disconnect;
#X obj 72 381 sendOSC;
#X text 185 327 comment;
#X text 183 96 comment;
#X obj 94 184 inlet;
#X obj 349 174 inlet;
#X obj 104 262 prepend send /freq;
#X obj 350 243 prepend send /amp;
#X connect 0 0 4 0;
#X connect 3 0 4 0;
#X connect 7 0 9 0;
#X connect 8 0 10 0;
#X connect 9 0 4 0;
#X connect 10 0 4 0;
#X restore 240 169 pd osc_communication;
#X text 291 235 toggle;
#X msg 139 201 \$1 20;
#X obj 137 234 line 0 5;
#X floatatom 74 273 5 0 0 0 - - -;
#N canvas 585 391 450 300 line_explanation 0;
#X text 28 27 line is an object to interpolate between values \, so
that they don't make sudden changes;
#X text 25 71 first argument is the initial value second argument is
the update rate;
#X text 24 103 the input to line is a list of two values the first
one is the desired value the second one is the time required to get
to that value;
#X restore 12 218 pd line_explanation;
#X obj 270 236 tgl 15 0 empty empty empty 17 7 0 10 -262144 -1 -1 0
1;
#X text 305 210 thresholding;
#X msg 271 260 \$1 20;
#X obj 269 282 line 0 5;
#X obj 185 297 osc~;
#X obj 27 319 phasor~;
#X obj 36 362 cos~;
#X obj 109 308 - 1;
#X obj 109 342 osc~;
#X obj 249 375 *~ 0.5;
#X obj 148 343 osc~;
#X obj 148 309 - 2;
#X obj 271 211 > 70;
#X connect 1 0 5 0;
#X connect 1 3 2 0;
#X connect 2 0 14 1;
#X connect 2 0 32 0;
#X connect 4 0 1 0;
#X connect 5 0 10 0;
#X connect 10 0 13 0;
#X connect 10 0 14 0;
#X connect 10 0 16 0;
#X connect 16 0 17 0;
#X connect 17 0 18 0;
#X connect 17 0 24 0;
#X connect 17 0 27 0;
#X connect 17 0 31 0;
#X connect 20 0 22 0;
#X connect 22 0 23 0;
#X connect 23 0 29 1;
#X connect 24 0 29 0;
#X connect 25 0 26 0;
#X connect 27 0 28 0;
#X connect 28 0 29 0;
#X connect 29 0 9 0;
#X connect 29 0 9 1;
#X connect 31 0 30 0;
#X connect 32 0 20 0;
